# xmcd
#
# Track frame offsets: 
#        150
#        10155
#        20312
#        33105
#        51242
#        61977
#        74677
#        87622
#        100152
#        112104
#        128135
#
# Disc length: 1874 seconds
#
# Revision: 0
# Processed by: cddbd v1.5.1PL2 Copyright (c) Steve Scherf et al.
# Submitted via: ExactAudioCopy v0.95b3
#
DISCID=9307500b
DTITLE=Ricky Wassun - Songs From The Old Country Church
DYEAR=1989
DGENRE=Bluegrass
TTITLE0=You Go To Your Church
TTITLE1=Light At The River
TTITLE2=Gathering Flowers For The Master's Bouquet
TTITLE3=Where We'll Never Grow Old
TTITLE4=Paul And Silas
TTITLE5=Education From On High
TTITLE6=Somebody Touched Me
TTITLE7=Will The Roses Bloom In Heaven
TTITLE8=Beautiful Star Of Bethlemem
TTITLE9=Memories Of Mother
TTITLE10=The Old Country Church
EXTD=
EXTT0=
EXTT1=
EXTT2=
EXTT3=
EXTT4=
EXTT5=
EXTT6=
EXTT7=
EXTT8=
EXTT9=
EXTT10=
PLAYORDER=
